<?xml version="1.0" encoding="utf-8"?>
<!-- Generator: Adobe Illustrator 24.0.1, SVG Export Plug-In . SVG Version: 6.00 Build 0)  -->
<svg version="1.1" id="grid_1_" xmlns="http://www.w3.org/2000/svg" xmlns:xlink="http://www.w3.org/1999/xlink" x="0px" y="0px"
	 viewBox="0 0 16 16" style="enable-background:new 0 0 16 16;" xml:space="preserve">
<style type="text/css">
	.st0{fill:none;stroke:#FF0068;stroke-width:2.267301e-02;}
	.st1{opacity:0.3;fill:none;stroke:#FF0068;stroke-width:2.267301e-02;enable-background:new    ;}
	.st2{opacity:0.3;fill:none;stroke:#FF0068;stroke-width:9.069202e-03;enable-background:new    ;}
</style>
<g id="grid">
	<g id="Group-3_1_">
		<g transform="translate(64.000000, 64.000000)">
			<path id="Rectangle-6_5_" class="st0" d="M-63.8-61.8h15.7c0.1,0,0.1,0.1,0.1,0.1v11.3c0,0.1-0.1,0.1-0.1,0.1h-15.7
				c-0.1,0-0.1-0.1-0.1-0.1v-11.3C-64-61.8-63.9-61.8-63.8-61.8z"/>
			<path id="Rectangle-6_4_" class="st0" d="M-61.7-64h11.3c0.1,0,0.1,0.1,0.1,0.1v15.7c0,0.1-0.1,0.1-0.1,0.1h-11.3
				c-0.1,0-0.1-0.1-0.1-0.1v-15.7C-61.8-64-61.7-64-61.7-64z"/>
			<path id="Rectangle-6_3_" class="st0" d="M-62.7-62.9h13.5c0.1,0,0.1,0.1,0.1,0.1v13.5c0,0.1-0.1,0.1-0.1,0.1h-13.5
				c-0.1,0-0.1-0.1-0.1-0.1v-13.5C-62.9-62.9-62.8-62.9-62.7-62.9z"/>
			<circle id="Oval-3_3_" class="st0" cx="-56" cy="-56" r="8"/>
			<circle id="Oval-3_2_" class="st0" cx="-56" cy="-56" r="3.6"/>
			<path id="Line-2_3_" class="st1" d="M-64-48l16-16"/>
			<path id="Line-2_2_" class="st1" d="M-48-48l-16-16"/>
			<path id="Line-3_11_" class="st1" d="M-58.5-64V-48"/>
			<path id="Line-3_10_" class="st1" d="M-56-64v16"/>
			<path id="Line-3_9_" class="st1" d="M-53.4-64V-48"/>
			<path id="Line-3_8_" class="st2" d="M-48-58.6h-16"/>
			<path id="Line-3_7_" class="st2" d="M-48-56h-16"/>
			<path id="Line-3_6_" class="st1" d="M-48-53.5h-16"/>
		</g>
	</g>
</g>
</svg>
