<?xml version="1.0" encoding="utf-8"?>
<!-- Generator: Adobe Illustrator 24.0.1, SVG Export Plug-In . SVG Version: 6.00 Build 0)  -->
<svg version="1.1" id="linear" xmlns="http://www.w3.org/2000/svg" xmlns:xlink="http://www.w3.org/1999/xlink" x="0px" y="0px"
	 viewBox="0 0 16 16" style="enable-background:new 0 0 16 16;" xml:space="preserve">
<g>
	<path d="M8,1c2.6,0,4.8,2.2,4.8,4.8c0,4.6-3.7,9.1-4.8,9.2c-1.1,0-4.8-4.5-4.8-9.2C3.2,3.2,5.4,1,8,1 M8,0C4.8,0,2.2,2.6,2.2,5.8
		C2.2,10.9,6.2,16,8,16s5.8-5.2,5.8-10.2C13.8,2.6,11.2,0,8,0L8,0z"/>
	<path d="M8,8.6c-1.5,0-2.8-1.3-2.8-2.8S6.5,3,8,3s2.8,1.3,2.8,2.8S9.5,8.6,8,8.6z M8,4C7,4,6.2,4.8,6.2,5.8c0,1,0.8,1.8,1.8,1.8
		s1.8-0.8,1.8-1.8C9.8,4.8,9,4,8,4z"/>
</g>
</svg>
