<?xml version="1.0" encoding="utf-8"?>
<!-- Generator: Adobe Illustrator 24.0.1, SVG Export Plug-In . SVG Version: 6.00 Build 0)  -->
<svg version="1.1" id="Layer_1" xmlns="http://www.w3.org/2000/svg" xmlns:xlink="http://www.w3.org/1999/xlink" x="0px" y="0px"
	 viewBox="0 0 16 16" style="enable-background:new 0 0 16 16;" xml:space="preserve">
<g id="linear">
	<path d="M12.2,14.8c-0.2,0-0.3,0-0.5-0.1l-3.6-2l-3.6,2c-0.4,0.2-0.8,0.2-1.2-0.1c-0.3-0.2-0.5-0.6-0.4-1l0.8-4c0,0,0,0-0.1-0.1
		l-3-2.8C0.3,6.4,0.3,5.9,0.4,5.5c0.2-0.4,0.5-0.6,1-0.6l3.9-0.5c0,0,0.1-0.1,0.1-0.1L7,0.7C7.4,0,8.6,0,8.9,0.7l1.8,3.7
		c0,0,0,0,0,0l4,0.5c0,0,0,0,0,0c0.3,0,0.7,0.2,0.8,0.6c0.2,0.4,0.1,0.9-0.2,1.2l-3,2.8l0.8,4.1c0.1,0.4-0.1,0.8-0.4,1
		C12.6,14.7,12.4,14.8,12.2,14.8z M8.6,11.8l3.6,2l-0.7-4c-0.1-0.4,0-0.8,0.2-1c0,0,0,0,0,0l3-2.8l-4-0.5c-0.4,0-0.8-0.3-0.8-0.7
		L8.1,1.1L6.3,4.8c0,0.1-0.1,0.1-0.1,0.1C6,5.1,5.8,5.4,5.4,5.4L1.3,5.9l3,2.8C4.6,9,4.7,9.3,4.7,9.6l-0.8,4.1l3.7-1.9
		C7.9,11.6,8.3,11.6,8.6,11.8z M7.9,12.6C7.9,12.6,7.9,12.6,7.9,12.6C7.9,12.6,7.9,12.6,7.9,12.6z M5.3,4.4C5.3,4.4,5.3,4.4,5.3,4.4
		L5.3,4.4C5.3,4.4,5.3,4.4,5.3,4.4z"/>
</g>
</svg>
