<?xml version="1.0" encoding="utf-8"?>
<!-- Generator: Adobe Illustrator 24.0.1, SVG Export Plug-In . SVG Version: 6.00 Build 0)  -->
<svg version="1.1" id="solid" xmlns="http://www.w3.org/2000/svg" xmlns:xlink="http://www.w3.org/1999/xlink" x="0px" y="0px"
	 viewBox="0 0 16 16" style="enable-background:new 0 0 16 16;" xml:space="preserve">
<path d="M12.3,9.1l3.2-2.9c0.4-0.3,0.2-0.9-0.3-1l-4.3-0.5c-0.2,0-0.4-0.2-0.5-0.3L8.5,0.4c-0.2-0.5-0.8-0.5-1.1,0L5.7,4.3
	C5.6,4.5,5.4,4.6,5.2,4.6L0.9,5.1c-0.5,0.1-0.7,0.7-0.3,1l3.2,2.9C3.9,9.2,4,9.4,3.9,9.6l-0.8,4.2c-0.1,0.5,0.4,0.9,0.9,0.6l3.8-2.1
	c0.2-0.1,0.4-0.1,0.6,0l3.8,2.1c0.4,0.2,1-0.1,0.9-0.6l-0.8-4.2C12,9.4,12.1,9.2,12.3,9.1z"/>
</svg>
